<svg width="304" height="224" viewBox="0 0 304 224" fill="none" xmlns="http://www.w3.org/2000/svg">
<g clip-path="url(#clip0_1_2055)">
<rect width="304" height="224" fill="url(#paint0_radial_1_2055)"/>
<path opacity="0.4" d="M203 101.932L318.956 318H433L203 -110L-27 318H87.0443L203 101.932Z" fill="url(#paint1_linear_1_2055)"/>
<path d="M87.0338 160.854C86.7259 160.928 86.5082 161.209 86.5082 161.532C86.5082 161.855 86.7259 162.136 87.0338 162.21L154.58 170.199C157.087 170.566 159.633 170.566 162.141 170.199L236.638 165.875C237.034 165.875 237.355 165.547 237.355 165.142C237.355 164.737 237.034 164.409 236.638 164.409L158.02 150.849L87.0338 160.854Z" fill="#393939"/>
<path d="M83.8447 146.268L99.898 150.666L147.019 157.043L169.056 157.886L182.494 129.703L123.046 124.976L86.3888 122.85L82.698 135.75L83.8447 146.268Z" fill="#393939"/>
<path d="M98.823 162.063C102.702 162.063 105.846 155.681 105.846 147.807C105.846 139.934 102.702 133.551 98.823 133.551C94.9441 133.551 91.7997 139.934 91.7997 147.807C91.7997 155.681 94.9441 162.063 98.823 162.063Z" fill="#393939"/>
<path d="M156.3 153.048C156.3 143.483 160.6 135.75 165.867 135.75C171.135 135.75 175.435 143.483 175.435 153.048" fill="#393939"/>
<path d="M159.489 170.346C164.773 170.346 169.056 162.601 169.056 153.048C169.056 143.495 164.773 135.75 159.489 135.75C154.205 135.75 149.921 143.495 149.921 153.048C149.921 162.601 154.205 170.346 159.489 170.346Z" fill="#5F5F5F"/>
<path d="M159.489 160.854C161.864 160.854 163.789 157.359 163.789 153.048C163.789 148.737 161.864 145.242 159.489 145.242C157.114 145.242 155.189 148.737 155.189 153.048C155.189 157.359 157.114 160.854 159.489 160.854Z" fill="#DCDFE0"/>
<path d="M224.025 165.948C231.129 165.948 236.889 158.204 236.889 148.65C236.889 139.097 231.129 131.353 224.025 131.353C216.92 131.353 211.161 139.097 211.161 148.65C211.161 158.204 216.92 165.948 224.025 165.948Z" fill="#393939"/>
<path d="M240.651 133.661V148.944C240.655 152.08 238.522 154.795 235.527 155.467C211.053 160.744 171.78 159.645 171.78 159.645H171.457L169.451 159.461C168.399 159.328 167.63 158.381 167.695 157.299C167.767 155.993 167.767 154.684 167.695 153.378C167.651 151.525 167.495 149.677 167.229 147.844C165.796 138.279 161.496 131.279 156.479 131.463C151.462 131.646 147.413 139.415 146.768 149.786V150.922C146.768 151.985 146.768 153.085 146.768 154.184C146.799 154.943 146.495 155.677 145.939 156.181C145.383 156.686 144.635 156.908 143.901 156.786L103.481 151.216H102.729C101.171 150.978 100.024 149.601 100.041 147.991C100.077 147.356 100.077 146.72 100.041 146.085C100.038 145.154 99.9778 144.224 99.8622 143.3C99.0022 135.054 95.4905 128.824 91.4414 128.934C88.5747 128.934 86.138 132.379 84.848 137.29C84.1216 140.234 83.8079 143.27 83.9164 146.305L83.343 145.719C82.5648 144.659 82.1266 143.379 82.0889 142.054L81.7664 135.311L81.5872 131.463C81.5262 130.1 81.6225 128.734 81.8739 127.395C81.8739 127.028 82.053 126.662 82.1247 126.295L82.4472 125.086L83.0564 122.85L83.558 120.688L83.9164 118.892C84.504 116.453 86.1558 114.426 88.3955 113.395L94.4155 110.683L148.416 110.024L210.014 114.385C224.347 118.489 224.956 117.83 231.12 121.384C232.848 122.386 234.439 123.618 235.85 125.049C237.21 126.442 238.304 128.083 239.075 129.887C239.53 130.377 239.894 130.948 240.15 131.572C240.459 132.225 240.63 132.937 240.651 133.661Z" fill="#D4D6D6"/>
<path d="M105.416 118.672L100.686 118.269C100.429 118.251 100.19 118.128 100.022 117.928C99.8542 117.729 99.7707 117.469 99.7904 117.207V116.51C99.7996 116.364 99.8653 116.228 99.9729 116.132C100.08 116.036 100.221 115.987 100.364 115.997L105.918 116.474C106.061 116.483 106.194 116.55 106.288 116.66C106.382 116.77 106.429 116.914 106.42 117.06V117.756C106.381 118.288 105.938 118.694 105.416 118.672Z" fill="#5F5F5F"/>
<path d="M125.841 120.798L121.649 120.432C121.328 120.413 121.029 120.262 120.819 120.013C120.61 119.764 120.508 119.439 120.538 119.112V118.526C120.547 118.419 120.598 118.32 120.678 118.251C120.759 118.182 120.863 118.149 120.968 118.159L126.773 118.636C126.878 118.645 126.974 118.697 127.042 118.779C127.109 118.862 127.141 118.969 127.131 119.076V119.662C127.113 119.99 126.966 120.296 126.722 120.51C126.479 120.725 126.161 120.828 125.841 120.798Z" fill="#5F5F5F"/>
<path d="M240.616 133.661V148.944C240.633 152.084 238.494 154.807 235.491 155.467C211.017 160.744 171.744 159.645 171.744 159.645H171.457V146.818C171.444 138.339 168.456 130.146 163.036 123.73L156.622 116.107L146.661 115.301L201.306 106.396C206.072 110.573 209.871 114.275 210.086 114.495C224.419 118.599 225.028 117.94 231.156 121.494C232.884 122.496 234.475 123.728 235.886 125.159C237.246 126.552 238.34 128.193 239.111 129.997C239.566 130.487 239.93 131.058 240.186 131.682C240.473 132.301 240.62 132.977 240.616 133.661Z" fill="#DCDFE0"/>
<path d="M158.127 113.578L173.213 128.971L192.599 132.965C192.599 132.965 234.058 132.965 239.182 129.96C232.016 117.683 204.639 114.275 204.639 114.275L158.127 113.578Z" fill="white"/>
<path d="M210.121 114.348L156.658 115.997H156.479L150.172 115.447L105.846 111.783L94.4513 110.793C94.4513 110.793 104.843 96.1341 115.27 93.129C125.698 90.1239 153.72 90.3805 153.72 90.3805C153.72 90.3805 178.23 90.637 186.686 95.2546L187.69 95.841C195.667 101.402 203.171 107.642 210.121 114.495V114.348Z" fill="#393939"/>
<path d="M93.1613 154.624C95.0216 154.624 96.5296 151.572 96.5296 147.807C96.5296 144.043 95.0216 140.991 93.1613 140.991C91.301 140.991 89.793 144.043 89.793 147.807C89.793 151.572 91.301 154.624 93.1613 154.624Z" fill="#DCDFE0"/>
<path d="M210.121 114.348H207.935L156.658 115.924L155.977 114.458L148.81 98.6628C148.508 97.9959 148.534 97.2213 148.88 96.5771C149.227 95.9329 149.853 95.4962 150.566 95.4012C156.99 94.666 163.453 94.3355 169.916 94.4117C176.689 94.4117 182.852 95.0347 187.833 95.5844C195.805 101.166 203.308 107.418 210.265 114.275L210.121 114.348Z" fill="#5F6368"/>
<path d="M150.172 115.448L128.851 113.578L112.153 112.113L101.833 111.196V110.317C101.833 108.883 102.299 107.491 103.159 106.359C103.963 105.309 104.837 104.317 105.775 103.39C108.398 100.783 111.556 98.8047 115.02 97.6001C119.179 96.1335 123.556 95.4143 127.956 95.4745C141.931 95.4745 145.944 98.5163 150.172 115.448Z" fill="#5F6368"/>
<path d="M171.457 125.819V126.698C171.545 128.273 172.373 129.707 173.679 130.546C174.874 131.274 176.012 132.095 177.083 133.002L177.549 133.735C178.879 135.677 181.004 136.892 183.318 137.033L192.169 137.619C193.527 137.716 194.852 137.161 195.752 136.117L197.293 134.321C197.735 133.864 197.735 133.129 197.293 132.672C186.83 123.95 171.457 125.819 171.457 125.819Z" fill="#A9AAAA"/>
<path d="M240.615 133.515V133.845L239.11 134.138L236.602 131.792C235.676 130.917 235.268 129.609 235.527 128.348C235.776 127.253 235.92 126.136 235.957 125.013C237.311 126.397 238.405 128.024 239.182 129.813C239.638 130.317 240.002 130.901 240.257 131.536C240.506 132.164 240.628 132.837 240.615 133.515Z" fill="#A9AAAA"/>
<path d="M198.583 140.441L200.733 143.74C202.322 146.169 205.046 147.562 207.9 147.404L226.784 146.342C230.015 146.153 232.829 144.023 233.95 140.918L235.24 137.253C235.694 136.002 235.446 134.599 234.595 133.588L233.95 132.818C233.225 132.015 232.187 131.585 231.12 131.646L202.453 133.258C201.438 133.305 200.472 133.721 199.73 134.431L199.3 134.871C197.767 136.302 197.465 138.653 198.583 140.441Z" fill="#393939"/>
<path d="M86.8546 118.233L84.1313 123.913C83.8154 124.568 83.1613 124.981 82.4471 124.976L83.0205 122.74L83.9163 118.856C84.186 117.665 84.7125 116.55 85.4571 115.594C86.0295 115.678 86.5293 116.034 86.8047 116.554C87.08 117.074 87.0986 117.697 86.8546 118.233Z" fill="#D44C59"/>
<path d="M207.936 114.421L156.658 115.997L155.977 114.531C159.991 113.725 177.728 110.353 185.898 113.212C186.545 113.432 187.223 113.543 187.905 113.542H204.711C205.859 113.566 206.977 113.922 207.936 114.568V114.421Z" fill="#393939"/>
<path d="M128.851 113.578L112.153 112.113L105.667 103.39C108.323 100.808 111.487 98.8341 114.948 97.6L128.851 113.578Z" fill="#6D7175"/>
<path d="M210.121 114.348L181.92 110.683C179.661 110.404 177.667 109.043 176.545 107.019L169.916 94.4117C176.689 94.4117 182.852 94.998 187.833 95.5844C195.765 101.187 203.221 107.464 210.121 114.348Z" fill="#6D7175"/>
<path d="M176.51 148.797C188.478 148.797 224.885 155.137 240.615 144.253C240.615 146.891 240.615 149.127 240.615 149.127C240.615 149.127 227.751 157.666 179.09 153.451C178.085 153.375 177.252 152.627 177.047 151.619C177.047 151.619 176.044 149.383 176.51 148.797Z" fill="#5F5F5F"/>
<path d="M99.8621 143.153C98.9663 134.907 95.4546 128.714 91.4413 128.824C88.5747 128.824 86.138 132.269 84.8122 137.143C84.1081 140.129 83.8067 143.199 83.9163 146.268L83.343 145.719C82.5539 144.665 82.1145 143.381 82.0888 142.054L81.7663 135.274L81.5872 131.609C81.5122 130.198 81.6084 128.782 81.8738 127.395C81.8738 127.395 92.6238 121.678 100.4 127.395C103.983 129.96 101.331 142.97 111.974 145.315C122.616 147.661 146.875 150.813 146.875 150.813C146.822 151.887 146.822 152.963 146.875 154.038C146.894 154.793 146.585 155.518 146.033 156.019C145.48 156.521 144.74 156.748 144.009 156.64L103.445 151.216H102.729C101.177 150.976 100.042 149.595 100.077 147.991V146.085C100.041 145.022 99.9696 144.069 99.8621 143.153Z" fill="#B6B9BA"/>
<path d="M80.6353 147.417C86.9582 147.417 92.084 142.291 92.084 135.968C92.084 129.645 86.9582 124.52 80.6353 124.52C74.3123 124.52 69.1865 129.645 69.1865 135.968C69.1865 142.291 74.3123 147.417 80.6353 147.417Z" fill="#393939"/>
<path d="M145.417 118.07C145.417 89.2462 119.779 65.22 90.9553 65.22C62.1457 65.22 38.7909 88.5748 38.7909 117.384C38.7909 146.208 62.2125 167.936 90.9553 169.791C125.543 171.564 145.417 146.812 145.417 118.07Z" fill="#393939"/>
<path d="M86.6016 76.9912C92.9246 76.9912 98.0503 71.8655 98.0503 65.5425C98.0503 59.2195 92.9246 54.0938 86.6016 54.0938C80.2786 54.0938 75.1528 59.2195 75.1528 65.5425C75.1528 71.8655 80.2786 76.9912 86.6016 76.9912Z" fill="#6EBC08"/>
<path d="M85.0697 169.307C113.723 169.307 136.952 146.078 136.952 117.425C136.952 88.7709 113.723 65.5425 85.0697 65.5425C56.4159 65.5425 33.1875 88.7709 33.1875 117.425C33.1875 146.078 56.4159 169.307 85.0697 169.307Z" fill="#77CA1D"/>
<path d="M113.127 73.8469C113.45 89.6897 108.33 107.508 84.9084 114.159C59.8744 121.133 45.8053 129.438 41.25 145.2C52.6251 163.105 73.7604 172.273 94.6061 168.346C115.452 164.418 131.802 148.187 135.882 127.371C139.962 106.555 130.948 85.3527 113.127 73.8469Z" fill="#6EBC08"/>
<path d="M85.0294 145.522C100.525 145.522 113.087 132.961 113.087 117.465C113.087 101.969 100.525 89.4075 85.0294 89.4075C69.5337 89.4075 56.9719 101.969 56.9719 117.465C56.9719 132.961 69.5337 145.522 85.0294 145.522Z" fill="white"/>
<path d="M66.6469 96.2203C58.2196 103.163 54.5534 114.343 57.2337 124.928C59.9139 135.512 68.4597 143.601 79.1754 145.695C89.8911 147.79 100.854 143.515 107.322 134.719" fill="white"/>
<path d="M87.5287 120.851H65.4375C64.5497 120.718 63.8931 119.955 63.8931 119.057C63.8931 118.16 64.5497 117.397 65.4375 117.263H83.9812V97.1072C84.1147 96.2194 84.8774 95.5628 85.7751 95.5628C86.6728 95.5628 87.4356 96.2194 87.569 97.1072L87.5287 120.851Z" fill="#393939"/>
</g>
<defs>
<radialGradient id="paint0_radial_1_2055" cx="0" cy="0" r="1" gradientUnits="userSpaceOnUse" gradientTransform="translate(152 112) rotate(-90) scale(112 152)">
<stop stop-color="white"/>
<stop offset="1" stop-color="#F0FAE6"/>
</radialGradient>
<linearGradient id="paint1_linear_1_2055" x1="203" y1="-110" x2="203" y2="318" gradientUnits="userSpaceOnUse">
<stop stop-color="#D7E0CF"/>
<stop offset="1" stop-color="#D7E0CF" stop-opacity="0.5"/>
</linearGradient>
<clipPath id="clip0_1_2055">
<rect width="304" height="224" fill="white"/>
</clipPath>
</defs>
</svg>
